<svg xmlns="http://www.w3.org/2000/svg" viewBox="0 0 391.01 273.01"><defs><style>.cls-1{fill:#21409a;}.cls-2{fill:#1b75bc;}.cls-3{fill:#58595b;}</style></defs><title>Asset 1</title><g id="Layer_2" data-name="Layer 2"><g id="logo"><path class="cls-1" d="M323.56,0H260.41s-11.6,135.34-13,161.88h-.73C235.15,137.27,174.53,0,174.53,0h-.38l14.31,121.44c3.78,8,56.34,103.63,56.34,103.63h38L291,132.4c2-25.12,3.74-56.69,5.09-87.25h.68c6.45,30.21,13.24,64.5,19,89.29l22.75,94.37h52Z"/><path class="cls-2" d="M149.71,228.81h52L186.87,108.48,174.15,0h-62.8L0,228.81H51.94S129.11,59.38,134.89,45.46h.78C136.69,59.38,149.71,228.81,149.71,228.81Z"/><circle class="cls-1" cx="114.4" cy="161.31" r="25.98"/><path class="cls-3" d="M6.17,262.1l-1.33,4.79H.46l5.71-18.67h5.54l5.79,18.67H13l-1.44-4.79Zm4.74-3.16-1.16-4c-.33-1.11-.66-2.49-.94-3.6H8.74c-.28,1.11-.55,2.52-.86,3.6l-1.11,4Z"/><path class="cls-3" d="M20.68,257.89c0-1.77-.05-3.3-.11-4.54h3.66l.19,1.88h.06A5.2,5.2,0,0,1,29,253c3,0,5.62,2.57,5.62,6.9,0,4.93-3.13,7.26-6.15,7.26a4.21,4.21,0,0,1-3.52-1.55h-.05v6.73H20.68Zm4.21,3.18A4.18,4.18,0,0,0,25,262a2.55,2.55,0,0,0,2.47,2c1.83,0,2.91-1.52,2.91-3.82s-1-3.79-2.85-3.79A2.64,2.64,0,0,0,25,258.47a3.24,3.24,0,0,0-.08.75Z"/><path class="cls-3" d="M38.24,257.89c0-1.77-.05-3.3-.11-4.54h3.66l.19,1.88H42A5.2,5.2,0,0,1,46.55,253c3,0,5.62,2.57,5.62,6.9,0,4.93-3.13,7.26-6.15,7.26a4.21,4.21,0,0,1-3.52-1.55h-.06v6.73H38.24Zm4.21,3.18a4.18,4.18,0,0,0,.08.89A2.55,2.55,0,0,0,45,264c1.83,0,2.91-1.52,2.91-3.82s-1-3.79-2.85-3.79a2.64,2.64,0,0,0-2.52,2.13,3.24,3.24,0,0,0-.08.75Z"/><path class="cls-3" d="M55.78,263.21a8.23,8.23,0,0,0,3.63,1c1.27,0,1.8-.44,1.8-1.14s-.42-1-2-1.55c-2.8-.94-3.88-2.47-3.85-4.07,0-2.52,2.16-4.43,5.51-4.43a9.07,9.07,0,0,1,3.82.78l-.75,2.91A6.64,6.64,0,0,0,61,256c-1,0-1.61.42-1.61,1.11s.53,1,2.19,1.55c2.58.89,3.66,2.19,3.68,4.18,0,2.52-2,4.38-5.87,4.38a9.61,9.61,0,0,1-4.38-.94Z"/><path class="cls-3" d="M84.75,259.75c-.08-2.24-.17-5-.17-7.67H84.5c-.58,2.38-1.36,5-2.08,7.23l-2.27,7.29h-3.3l-2-7.23c-.61-2.19-1.25-4.85-1.69-7.29h-.06c-.11,2.52-.19,5.4-.33,7.73l-.33,7.09H68.55l1.19-18.67h5.62l1.83,6.23c.58,2.16,1.16,4.49,1.58,6.68h.08c.53-2.16,1.16-4.63,1.77-6.7l2-6.2h5.51l1,18.67H85Z"/><path class="cls-3" d="M106.71,260a6.8,6.8,0,0,1-7.15,7.23,6.63,6.63,0,0,1-7-7c0-4.38,2.88-7.17,7.23-7.17A6.59,6.59,0,0,1,106.71,260Zm-9.81.14c0,2.33,1,4.07,2.77,4.07,1.63,0,2.69-1.63,2.69-4.07,0-2-.78-4.07-2.69-4.07S96.91,258.11,96.91,260.11Z"/><path class="cls-3" d="M120.7,248.22h4.21V260c0,5.32-2.55,7.17-6.65,7.17a11,11,0,0,1-3.07-.44l.47-3.41a7,7,0,0,0,2.16.33c1.77,0,2.88-.8,2.88-3.71Z"/><path class="cls-3" d="M142.67,260a6.8,6.8,0,0,1-7.15,7.23,6.63,6.63,0,0,1-7-7c0-4.38,2.88-7.17,7.23-7.17A6.59,6.59,0,0,1,142.67,260Zm-9.81.14c0,2.33,1,4.07,2.77,4.07,1.63,0,2.69-1.63,2.69-4.07,0-2-.78-4.07-2.69-4.07S132.86,258.11,132.86,260.11Z"/><path class="cls-3" d="M150.62,249.58a2.11,2.11,0,0,1-2.27,2.1,2.12,2.12,0,1,1,0-4.24A2.11,2.11,0,0,1,150.62,249.58Zm-4.35,17.31V253.35h4.21v13.54Z"/><path class="cls-3" d="M154.85,257.67c0-1.69-.06-3.13-.11-4.32h3.66l.19,1.86h.08a5,5,0,0,1,4.18-2.16c2.77,0,4.85,1.83,4.85,5.82v8h-4.21v-7.51c0-1.74-.61-2.94-2.13-2.94a2.25,2.25,0,0,0-2.13,1.58,2.88,2.88,0,0,0-.17,1.05v7.81h-4.21Z"/><path class="cls-3" d="M176.62,249.47v3.88h3v3.1h-3v4.9c0,1.63.39,2.38,1.66,2.38a6.77,6.77,0,0,0,1.25-.11l0,3.19a8.27,8.27,0,0,1-2.74.36,4.38,4.38,0,0,1-3.16-1.16c-.78-.8-1.16-2.11-1.16-4v-5.54h-1.8v-3.1h1.8v-2.94Z"/><path class="cls-3" d="M189.95,262.54a10.76,10.76,0,0,0,4.68,1.16c1.94,0,3-.8,3-2s-.89-1.83-3.13-2.63c-3.1-1.08-5.12-2.8-5.12-5.51,0-3.18,2.66-5.62,7.06-5.62a11.43,11.43,0,0,1,4.76.94l-.94,3.41a8.86,8.86,0,0,0-3.9-.89c-1.83,0-2.71.83-2.71,1.8,0,1.19,1.05,1.72,3.46,2.63,3.3,1.22,4.85,2.94,4.85,5.57,0,3.13-2.41,5.79-7.53,5.79a12.21,12.21,0,0,1-5.29-1.14Z"/><path class="cls-3" d="M210.19,249.47v3.88h3v3.1h-3v4.9c0,1.63.39,2.38,1.66,2.38a6.77,6.77,0,0,0,1.25-.11l0,3.19a8.27,8.27,0,0,1-2.74.36,4.38,4.38,0,0,1-3.16-1.16c-.78-.8-1.16-2.11-1.16-4v-5.54h-1.8v-3.1h1.8v-2.94Z"/><path class="cls-3" d="M229.89,260a6.8,6.8,0,0,1-7.15,7.23,6.63,6.63,0,0,1-7-7c0-4.38,2.88-7.17,7.23-7.17A6.59,6.59,0,0,1,229.89,260Zm-9.81.14c0,2.33,1,4.07,2.77,4.07,1.63,0,2.69-1.63,2.69-4.07,0-2-.78-4.07-2.69-4.07S220.08,258.11,220.08,260.11Z"/><path class="cls-3" d="M243.74,266.56a10.26,10.26,0,0,1-3.77.61c-4.38,0-7.17-2.66-7.17-6.92,0-4,2.71-7.2,7.76-7.2a9.76,9.76,0,0,1,3.21.53l-.67,3.13a5.76,5.76,0,0,0-2.35-.41,3.8,3.8,0,0,0,.08,7.59,6.52,6.52,0,0,0,2.41-.41Z"/><path class="cls-3" d="M251.27,259.05h.06c.3-.55.64-1.11,1-1.63l2.74-4.07h5.07l-4.85,5.48,5.54,8.06h-5.18l-3.27-5.57-1.08,1.33v4.24h-4.21V247.23h4.21Z"/><path class="cls-3" d="M283.51,266.37a12,12,0,0,1-4.79.8c-6.45,0-9.78-4-9.78-9.33,0-6.37,4.54-9.92,10.19-9.92a11,11,0,0,1,4.6.83l-.86,3.35a9.13,9.13,0,0,0-3.55-.69c-3.35,0-6,2-6,6.18,0,3.74,2.22,6.09,6,6.09a10.58,10.58,0,0,0,3.52-.61Z"/><path class="cls-3" d="M300,260a6.8,6.8,0,0,1-7.15,7.23,6.63,6.63,0,0,1-7-7c0-4.38,2.88-7.17,7.23-7.17A6.59,6.59,0,0,1,300,260Zm-9.81.14c0,2.33,1,4.07,2.77,4.07,1.63,0,2.69-1.63,2.69-4.07,0-2-.78-4.07-2.69-4.07S290.19,258.11,290.19,260.11Z"/><path class="cls-3" d="M303.59,257.67c0-1.69-.06-3.13-.11-4.32H307l.19,1.83h.08a4.7,4.7,0,0,1,4.1-2.13,3.84,3.84,0,0,1,3.71,2.3h.06a6,6,0,0,1,1.74-1.63,4.89,4.89,0,0,1,2.58-.66c2.6,0,4.57,1.83,4.57,5.87v8H320v-7.37c0-2-.64-3.1-2-3.1a2.06,2.06,0,0,0-1.94,1.47,3.5,3.5,0,0,0-.17,1.08v7.92h-4.1V259.3c0-1.72-.61-2.88-1.94-2.88a2.14,2.14,0,0,0-2,1.52,2.8,2.8,0,0,0-.17,1.05v7.89h-4.1Z"/><path class="cls-3" d="M328.41,257.89c0-1.77-.06-3.3-.11-4.54H332l.19,1.88h.06a5.2,5.2,0,0,1,4.51-2.19c3,0,5.62,2.57,5.62,6.9,0,4.93-3.13,7.26-6.15,7.26a4.2,4.2,0,0,1-3.52-1.55h-.06v6.73h-4.21Zm4.21,3.18a4.22,4.22,0,0,0,.08.89,2.55,2.55,0,0,0,2.46,2c1.83,0,2.91-1.52,2.91-3.82s-1-3.79-2.85-3.79a2.65,2.65,0,0,0-2.52,2.13,3.28,3.28,0,0,0-.08.75Z"/><path class="cls-3" d="M353.67,266.89l-.25-1.36h-.08a4.88,4.88,0,0,1-3.88,1.66,4.15,4.15,0,0,1-4.38-4.15c0-3.52,3.16-5.21,7.95-5.18v-.19c0-.72-.39-1.75-2.46-1.75a7.61,7.61,0,0,0-3.74,1l-.78-2.71a11.19,11.19,0,0,1,5.26-1.19c4.51,0,6,2.66,6,5.84v4.71a21,21,0,0,0,.19,3.3Zm-.5-6.4c-2.22,0-3.93.5-3.93,2.13a1.51,1.51,0,0,0,1.66,1.61,2.3,2.3,0,0,0,2.19-1.55,3,3,0,0,0,.08-.72Z"/><path class="cls-3" d="M361.6,257.67c0-1.69-.06-3.13-.11-4.32h3.66l.19,1.86h.08A5,5,0,0,1,369.6,253c2.77,0,4.85,1.83,4.85,5.82v8h-4.21v-7.51c0-1.74-.61-2.94-2.13-2.94A2.25,2.25,0,0,0,366,258a2.9,2.9,0,0,0-.17,1.05v7.81H361.6Z"/><path class="cls-3" d="M381.46,253.35l2,6.65c.22.8.5,1.8.66,2.52h.08c.19-.72.42-1.75.61-2.52l1.66-6.65H391l-3.16,8.92c-1.94,5.37-3.24,7.53-4.76,8.89A7.78,7.78,0,0,1,379,273l-.89-3.57a5.32,5.32,0,0,0,1.83-.72,4.84,4.84,0,0,0,1.74-1.69,1.1,1.1,0,0,0,.22-.61,1.54,1.54,0,0,0-.19-.69l-5-12.38Z"/></g></g></svg>